<?xml version="1.0" encoding="utf-8"?>
<svg viewBox="-1.511 -1.503 67.03 67.023" width="67.03" height="67.023" xmlns="http://www.w3.org/2000/svg">
  <ellipse style="fill: rgb(255, 255, 255); fill-rule: nonzero; paint-order: fill; stroke-opacity: 1; stroke: rgb(255, 255, 255); stroke-width: 0px;" cx="32.436" cy="31.64" rx="25.503" ry="25.503"/>
  <path d="M32,2C15.431,2,2,15.432,2,32c0,16.568,13.432,30,30,30c16.568,0,30-13.432,30-30C62,15.432,48.568,2,32,2z M25.025,50 l-0.02-0.02L24.988,50L11,35.6l7.029-7.164l6.977,7.184l21-21.619L53,21.199L25.025,50z" style="paint-order: stroke markers; stroke: rgb(0, 0, 0); stroke-width: 0px;" fill="#43a047"/>
  <path d="M 32 2 C 15.431 2 2 15.432 2 32 C 2 48.568 15.432 62 32 62 C 48.568 62 62 48.568 62 32 C 62 15.432 48.568 2 32 2 Z" style="paint-order: stroke markers; fill: rgba(0, 0, 0, 0); stroke: rgb(0, 0, 0); stroke-width: 7px;"/>
</svg>